<?xml version="1.0" encoding="iso-8859-1"?>
<!-- Generator: Adobe Illustrator 16.0.0, SVG Export Plug-In . SVG Version: 6.00 Build 0)  -->
<!DOCTYPE svg PUBLIC "-//W3C//DTD SVG 1.1//EN" "http://www.w3.org/Graphics/SVG/1.1/DTD/svg11.dtd">
<svg version="1.1" id="Capa_1" xmlns="http://www.w3.org/2000/svg" xmlns:xlink="http://www.w3.org/1999/xlink" x="0px" y="0px"
	 width="516.375px" height="516.375px" viewBox="0 0 516.375 516.375" style="enable-background:new 0 0 516.375 516.375;"
	 xml:space="preserve">
<g>
	<g>
		<path d="M38.25,38.308L38.25,38.308L38.25,38.308C17.212,38.308,0,55.52,0,76.558v153l256.275,256.275
			c13.387,13.387,34.425,15.3,49.725,3.824L38.25,219.995V38.308z"/>
		<path d="M504.9,275.458L248.625,19.183h-153c-21.038,0-38.25,17.212-38.25,38.25v153L313.65,466.708
			c15.3,15.3,40.162,15.3,53.55,0l137.7-137.7C520.2,313.708,520.2,290.758,504.9,275.458z M162.562,153.058
			c-15.3,0-28.688-13.388-28.688-28.688s13.388-28.688,28.688-28.688s28.688,13.388,28.688,28.688S177.862,153.058,162.562,153.058z
			"/>
	</g>
</g>
<g>
</g>
<g>
</g>
<g>
</g>
<g>
</g>
<g>
</g>
<g>
</g>
<g>
</g>
<g>
</g>
<g>
</g>
<g>
</g>
<g>
</g>
<g>
</g>
<g>
</g>
<g>
</g>
<g>
</g>
</svg>
