<?xml version="1.0" encoding="iso-8859-1"?>
<!-- Generator: Adobe Illustrator 19.0.0, SVG Export Plug-In . SVG Version: 6.00 Build 0)  -->
<svg version="1.1" id="Capa_1" xmlns="http://www.w3.org/2000/svg" xmlns:xlink="http://www.w3.org/1999/xlink" x="0px" y="0px"
	 viewBox="0 0 411.371 411.371" style="enable-background:new 0 0 411.371 411.371;" xml:space="preserve">
<g>
	<g>
		<path d="M94.496,411.341c-21.003,0-40.744-8.182-55.594-23.032L23.021,372.45C8.171,357.622,0,337.88,0,316.866
			s8.171-40.755,23.021-55.584l103.248-103.259c29.722-29.7,81.5-29.7,111.178,0l15.881,15.881c4.387,4.387,4.387,11.494,0,15.881
			c-4.387,4.387-11.494,4.387-15.881,0l-15.881-15.881c-21.2-21.211-58.172-21.222-79.416,0L38.902,277.164
			c-10.606,10.595-16.44,24.699-16.44,39.703s5.835,29.108,16.44,39.703l15.881,15.859c21.211,21.233,58.205,21.233,79.416,0
			l71.497-71.486c4.387-4.387,11.494-4.387,15.881,0c4.376,4.387,4.376,11.494,0,15.881l-71.497,71.486
			C135.241,403.159,115.499,411.341,94.496,411.341z M229.507,276.352h-0.022c-20.992,0-40.723-8.204-55.562-23.054
			c-4.376-4.387-4.376-11.516,0.022-15.881c4.365-4.387,11.494-4.387,15.881,0c10.595,10.617,24.677,16.473,39.659,16.473
			c0.022,0,0.022,0,0.022,0c14.982,0,29.086-5.857,39.703-16.473l103.249-103.248c10.617-10.606,16.451-24.699,16.451-39.703
			c0-14.993-5.835-29.086-16.451-39.692l-15.881-15.881c-21.935-21.891-57.558-21.891-79.405,0l-71.476,71.443
			c-4.387,4.387-11.494,4.387-15.881,0c-4.387-4.387-4.387-11.494,0-15.881l71.476-71.443c30.665-30.643,80.502-30.643,111.167,0
			l15.881,15.881c14.85,14.839,23.032,34.581,23.032,55.573c0,21.003-8.182,40.744-23.032,55.584L285.09,253.298
			C270.24,268.17,250.499,276.352,229.507,276.352z"/>
	</g>
</g>
<g>
</g>
<g>
</g>
<g>
</g>
<g>
</g>
<g>
</g>
<g>
</g>
<g>
</g>
<g>
</g>
<g>
</g>
<g>
</g>
<g>
</g>
<g>
</g>
<g>
</g>
<g>
</g>
<g>
</g>
</svg>
